<svg width="24" height="24" viewBox="0 0 24 24" fill="none" xmlns="http://www.w3.org/2000/svg">
  <path d="M3 22H21" stroke="#4CAF50" stroke-width="2" stroke-linecap="round" stroke-linejoin="round"/>
  <path d="M5.59998 8.38H4.07998C3.47998 8.38 2.97998 8.88 2.97998 9.48V18.28C2.97998 18.88 3.47998 19.38 4.07998 19.38H5.59998C6.19998 19.38 6.69998 18.88 6.69998 18.28V9.48C6.69998 8.88 6.19998 8.38 5.59998 8.38Z" stroke="#4CAF50" stroke-width="2" stroke-linecap="round" stroke-linejoin="round"/>
  <path d="M12.8 5.19H11.28C10.68 5.19 10.18 5.69 10.18 6.29V18.28C10.18 18.88 10.68 19.38 11.28 19.38H12.8C13.4 19.38 13.9 18.88 13.9 18.28V6.29C13.9 5.69 13.4 5.19 12.8 5.19Z" stroke="#4CAF50" stroke-width="2" stroke-linecap="round" stroke-linejoin="round"/>
  <path d="M19.9999 2H18.4799C17.8799 2 17.3799 2.5 17.3799 3.1V18.28C17.3799 18.88 17.8799 19.38 18.4799 19.38H19.9999C20.5999 19.38 21.0999 18.88 21.0999 18.28V3.1C21.0999 2.5 20.5999 2 19.9999 2Z" stroke="#4CAF50" stroke-width="2" stroke-linecap="round" stroke-linejoin="round"/>
</svg> 